<svg xmlns="http://www.w3.org/2000/svg" version="1.1" xmlns:xlink="http://www.w3.org/1999/xlink" xmlns:svgjs="http://svgjs.dev/svgjs" width="100%" height="100%" viewBox="0 0 1000 600"><rect width="1000" height="600" x="0" y="0" fill="#ff00ff"/><g><circle r="166.66666666666666" cx="317.3064524332682" cy="339.528659912973" fill="#ff00ff" transform="matrix(0.8297940918093422,0,0,0.8297940918093422,0,18.26110821770871)"/><path d="M330.8742817772668 280.3578251059421L330.8742817772668 280.3578251059421L326.8793066986789 280.18194569996655Q316.65317552267095 280.18194569996655 306.7034262703388 282.71963427189974Q296.7788026474318 285.282448473258 289.5174957435834 289.30254918127093Q282.28131446916007 293.3226498892839 277.8089524314957 298.4231526625754Q273.36171602325635 303.49852980644175 273.36171602325635 308.3477762854824L273.36171602325635 308.3477762854824Q273.36171602325635 319.1266713088421 287.4823197601519 325.4080786651124L287.4823197601519 325.4080786651124Q287.4823197601519 329.10154619059927 286.60292273027403 334.10154644619035Q285.7235257003962 339.0764210723564 284.9195055587936 340.1568231376349L284.9195055587936 340.1568231376349Q270.8742787101733 334.4030539992914 263.939604988851 326.1869731772899Q257.0049312675286 317.97089235528836 257.0049312675286 308.87541450340905L257.0049312675286 308.87541450340905Q257.0049312675286 292.36787597113084 274.94463067703646 280.2070713293916Q292.8843300865443 268.07139231707754 323.26121606146717 265.5085781157193L323.26121606146717 265.5085781157193Q337.23106602181224 264.5286785681411 350.99991094675664 264.5286785681411Q364.79388150112607 264.5286785681411 372.8089572877269 264.6291810858414Q380.8491587037529 264.70455797411665 384.7436312646404 264.70455797411665L384.7436312646404 264.70455797411665L372.28131906980025 283.34777500752676Q363.9898613595235 283.34777500752676 353.38684574213937 282.16687042454794Q342.7838301247551 280.96084021214403 338.81398067559235 280.70958391789327L338.81398067559235 280.70958391789327Q336.95468409813634 290.40807687597453 333.9647341965517 307.29249984962894Q330.94965866554196 324.15179719385833 330.1456385239394 328.398028566697L330.1456385239394 328.398028566697Q337.6582017220386 327.51863153681916 345.57277499093914 327.51863153681916Q353.4873482598397 327.51863153681916 363.8139819535479 328.0462697547459L363.8139819535479 328.0462697547459Q367.0803137788085 328.0462697547459 367.0803137788085 331.1367221740308Q367.0803137788085 334.2271745933158 364.2913689126245 337.7698883422522Q361.5024240464405 341.28747646176356 358.1607153329047 341.28747646176356L358.1607153329047 341.28747646176356Q337.40694542778783 341.28747646176356 327.4069449166056 342.1919991210665L327.4069449166056 342.1919991210665Q320.9747837837848 373.44828212586725 312.93458236775894 388.7246648163165L312.93458236775894 388.7246648163165Q305.9496573875864 401.9909971527593 297.3064408653586 407.8201431793781L297.3064408653586 407.8201431793781Q287.23106346590106 414.5286862358747 273.7134748352075 414.5286862358747L273.7134748352075 414.5286862358747Q257.2059363029293 414.5286862358747 251.35166464688538 401.0864744934563L251.35166464688538 401.0864744934563Q249.8692525108056 397.64426326222025 249.8692525108056 394.3025545486845L249.8692525108056 394.3025545486845Q249.8692525108056 380.508583994315 268.6883489501913 380.508583994315L268.6883489501913 380.508583994315Q267.7084494026131 385.8100918030071 267.7084494026131 392.21712730640274Q267.7084494026131 398.6241628097984 269.8190022743199 402.06637404103446Q271.95468077545183 405.5085852722706 276.90442977219277 405.6844646782462Q281.8290531395087 405.86034408422177 286.07528451234737 400.9105950874807Q290.32151588518605 395.9859717201649 294.040109040098 386.68948883288493L294.040109040098 386.68948883288493Q300.2963907669432 370.9859704422093 306.47729560551306 345.63421035230255L306.47729560551306 345.63421035230255L298.88935551913863 347.8452657417097Q298.4370941894872 347.8452657417097 297.3064408653586 347.87039137113476Q296.15066191180483 347.92064262998497 294.94463169940093 346.9407430824068Q293.76372711642216 345.9859691642537 293.76372711642216 343.7749137748466Q293.76372711642216 341.56385838543946 294.5677472580247 339.880441213959L294.5677472580247 339.880441213959Q295.69840058215334 337.5940089362766 299.24111433108976 336.03621991192165Q302.7838280800262 334.5035565169917 309.4923711365228 332.3678780158598L309.4923711365228 332.3678780158598Q310.8240294960521 326.89049080119213 311.82905467305534 322.3427518752525Q312.83407985005863 317.7950129493128 313.6380999916612 314.3528017180767Q314.44212013326376 310.91059048684065 314.96975835119053 308.87541450340905Q315.4973965691172 306.8402385199775 316.1506629341693 304.1015449126437Q316.8290549286465 301.36285130530985 317.3566931465732 299.6543085044043Q317.8843313644999 297.92064007407373 318.4873464707018 296.0613434966177L318.4873464707018 296.0613434966177Q319.7436279419559 292.4432528594061 320.6984018601089 290.75983568792566L320.6984018601089 290.75983568792566Q325.3968945625991 283.8000363371782 330.8742817772668 280.3578251059421Z " fill="#ff00ff" transform="matrix(0.8297940918093422,0,0,0.8297940918093422,0,18.26110821770871)"/><path d="M623.6111109606832 271.6350929612443L623.6111109606832 271.6350929612443L598.4380064943525 362.7338521211573Q605.5444203502113 349.5596541268345 617.0786766854899 340.293983753234Q628.6129330207684 331.02831337963346 639.5732097753814 331.02831337963346L639.5732097753814 331.02831337963346Q648.9755419539023 331.02831337963346 648.9755419539023 342.26191374408717L648.9755419539023 342.26191374408717Q648.9755419539023 346.3071031697299 642.7984283715019 364.31912905823356Q636.5939824281174 382.33115494673723 636.5939824281174 389.35557171964376L636.5939824281174 389.35557171964376Q636.5939824281174 392.2254696229714 638.4252506140504 392.2254696229714L638.4252506140504 392.2254696229714Q639.6552068583336 392.2254696229714 649.5221891735837 382.2764902247691Q659.3618391278497 372.35484318755084 663.2157020266039 369.07495986946213L663.2157020266039 369.07495986946213L663.2157020266039 379.8439100971866Q632.9314460562518 414.5286761859744 623.6111109606832 414.5286761859744L623.6111109606832 414.5286761859744Q617.4613297392668 414.5286761859744 617.4613297392668 407.2309358032271L617.4613297392668 407.2309358032271Q617.4613297392668 406.16497372484827 617.8439827930439 403.51373470939325Q618.226635846821 400.8898280549223 620.9325395842441 391.76081948624216L620.9325395842441 391.76081948624216Q628.7222624647047 365.8224089123575 628.7222624647047 354.288152577079L628.7222624647047 354.288152577079Q628.7222624647047 348.79434801928045 623.2284579069061 348.79434801928045L623.2284579069061 348.79434801928045Q614.7827583628277 348.79434801928045 605.407758545291 361.1485751840811Q596.0327587277542 373.5028023488818 592.7255430486814 386.04835604057104Q589.4183273696087 398.56657737127614 587.3957326567873 403.8690554021862Q585.373137943966 409.14420107211214 582.3119135137499 411.740775365599L582.3119135137499 411.740775365599L567.3064473334941 411.740775365599Q568.9463889925385 399.8238659765435 589.9923069502743 322.172628420794L589.9923069502743 322.172628420794L596.9893913621968 296.0428913200209Q601.5265632855527 279.0421627879279 605.462423267259 274.53232322555596L605.462423267259 274.53232322555596Q607.7583415899212 271.82641948813284 611.5028750447391 271.5530958782921Q615.247408499557 271.2524399074673 618.9646095933908 271.2524399074673Q622.6544783262407 271.2524399074673 623.6111109606832 271.6350929612443ZM665.8122763200907 414.5286761859744L665.8122763200907 414.5286761859744Q654.551343594653 414.5286761859744 654.551343594653 398.37525084438766L654.551343594653 398.37525084438766Q654.551343594653 392.9087786475732 655.9179616438566 387.71563006059944L655.9179616438566 387.71563006059944Q661.6850898114959 365.90440599530973 671.8527280975708 336.6041150203842L671.8527280975708 336.6041150203842Q672.2353811513478 334.1988672537858 687.432173858492 334.1988672537858L687.432173858492 334.1988672537858L690.7940542595329 334.1988672537858Q690.7940542595329 334.39019378067434 686.8581942778266 346.7717533064591L686.8581942778266 346.7717533064591Q675.0232819717231 383.97109660578155 675.0232819717231 390.88618393475184Q675.0232819717231 397.80127126372213 681.4737191639642 397.80127126372213L681.4737191639642 397.80127126372213Q686.9401913607787 397.80127126372213 695.0579025730482 393.10010517446165Q703.1756137853176 388.3989390852013 704.5148994735372 385.6110382648259L704.5148994735372 385.6110382648259L715.010526091421 345.62379414512804Q717.1151178871945 337.45141821089044 720.7776542590602 335.64748238594166L720.7776542590602 335.64748238594166Q723.5655550794356 334.1988672537858 729.7153363008518 334.1988672537858L729.7153363008518 334.1988672537858L736.2477705760451 334.1988672537858Q724.0302052161649 378.31329788207853 721.816283976455 388.09828311437644L721.816283976455 388.09828311437644Q721.050977868901 395.39602349712374 721.050977868901 396.8446386292796Q721.050977868901 398.29325376143544 721.4882956446461 398.81256862013277Q721.9256134203913 399.33188347883015 723.4562256354993 399.33188347883015L723.4562256354993 399.33188347883015Q728.3487182516483 399.33188347883015 758.0589946413348 369.6489394501276L758.0589946413348 369.6489394501276L758.0589946413348 380.41788967785214Q755.7357439576887 382.5224814736257 750.0779452339858 387.8522918655198Q744.3928141492987 393.18210225741393 741.4135868020348 395.9426707168052Q738.434359454771 398.67590681521244 733.4052050337017 402.80309332380733Q728.3487182516483 406.9302798324023 724.9868378506073 409.0622039891599L724.9868378506073 409.0622039891599Q716.2404823357042 414.5286761859744 710.6646806949535 414.5286761859744L710.6646806949535 414.5286761859744Q702.4103076777636 414.5286761859744 702.4103076777636 401.928457772317L702.4103076777636 401.928457772317Q702.4103076777636 396.6533121023911 703.3669403122061 392.9907757305254L703.3669403122061 392.9907757305254Q681.1730631931395 414.5286761859744 665.8122763200907 414.5286761859744ZM798.4015594538256 388.8635892219305Q788.0425946408621 400.9718251378745 777.5469680229784 407.75025066192444Q767.0786737660787 414.5286761859744 761.858192818121 414.5286761859744Q756.6103795091791 414.5286761859744 753.8224786888037 412.56074619512117Q751.0345778684283 410.59281620426793 749.6952921802088 407.3129328861793L749.6952921802088 407.3129328861793Q747.3720414965626 401.35447819165154 747.3720414965626 392.7174521206847Q747.3720414965626 384.0530936887337 752.1005399468071 372.68283151935964Q756.8017060360676 361.28523698900153 764.0994464188149 352.1562284203213Q771.3971868015622 343.02721985164123 780.772186619099 337.04143279612936Q790.1471864366357 331.02831337963346 797.3629297364308 331.02831337963346Q804.5513406752419 331.02831337963346 811.38443092126 333.0509080924548L811.38443092126 333.0509080924548L824.1486435008218 287.40586524905405Q826.8545472382449 276.33625905050474 829.4511215317318 274.53232322555596L829.4511215317318 274.53232322555596Q833.0043284596612 271.9357489320691 836.694197192511 271.6897576832124Q840.4113982863447 271.4437664343558 844.6205818778919 271.4437664343558L844.6205818778919 271.4437664343558L847.9824622789328 271.4437664343558Q847.5998092251558 274.7236497524445 844.6205818778919 284.8092909555672L844.6205818778919 284.8092909555672Q838.6621271833641 302.57532559521417 828.1391682044963 340.86796333389947Q817.6162092256285 379.1606010725848 817.6162092256285 386.5676708992684L817.6162092256285 386.5676708992684Q817.6162092256285 390.12087782719783 818.2995182502303 391.37816643246515Q818.9828272748321 392.6081226767484 820.841427821749 392.6081226767484Q822.72736072965 392.6081226767484 828.6311507022095 387.0323210359976Q834.5349406747692 381.48385175623093 845.9598675661115 369.45761292323914L845.9598675661115 369.45761292323914L845.9598675661115 380.2265631509636Q844.6205818778919 381.56584883918316 841.0127102279944 385.2283852110489Q837.432170939081 388.8635892219305 835.6828998361003 390.6128603249111L835.6828998361003 390.6128603249111L830.5990806930628 395.58735002401227Q827.3191973749741 398.9492304250532 825.3512673841209 400.69850152803383Q823.3833373932677 402.4204402700303 820.5134394899401 405.01701456351725Q817.6162092256285 407.61358885700406 815.7029439567434 409.00753926719176Q813.7896786878583 410.40148967737946 811.5757574481485 411.8501048095353L811.5757574481485 411.8501048095353Q807.4485709395535 414.5286761859744 804.6606701191782 414.5286761859744L804.6606701191782 414.5286761859744Q796.7616177947813 414.5286761859744 796.7616177947813 401.73713124542854L796.7616177947813 401.73713124542854Q796.7616177947813 395.58735002401227 798.4015594538256 388.8635892219305L798.4015594538256 388.8635892219305ZM801.1074631912487 378.69595093585554L809.5531627353272 341.49660763653316Q809.1705096815501 340.1573219483136 806.1366176123181 338.95469806501444Q803.1300579040701 337.7520741817152 800.5334836105833 337.7520741817152L800.5334836105833 337.7520741817152Q792.2517782324094 337.7520741817152 784.4620553519487 345.35047053528734Q776.6996648324722 352.9215345278754 772.1624929091162 363.745149477568Q767.6526533467443 374.54143206627657 767.6526533467443 384.35374965955856L767.6526533467443 384.35374965955856Q767.6526533467443 396.5713150194389 775.5517056711411 396.5713150194389L775.5517056711411 396.5713150194389Q781.7014868925575 396.5713150194389 790.9124925441898 389.60156296850045Q800.1508305568062 382.631810917562 801.1074631912487 378.69595093585554L801.1074631912487 378.69595093585554ZM883.7331904460995 388.8635892219305Q873.3468932721519 400.9718251378745 862.8785990152522 407.75025066192444Q852.4103047583525 414.5286761859744 847.1624914494106 414.5286761859744Q841.9420105014528 414.5286761859744 839.1541096810774 412.56074619512117Q836.3662088607022 410.59281620426793 835.0269231724825 407.3129328861793L835.0269231724825 407.3129328861793Q832.7036724888363 401.35447819165154 832.7036724888363 392.7174521206847Q832.7036724888363 384.0530936887337 837.432170939081 372.68283151935964Q842.1333370283413 361.28523698900153 849.4310774110886 352.1562284203213Q856.7288177938359 343.02721985164123 866.1038176113727 337.04143279612936Q875.4788174289096 331.02831337963346 882.6672283677207 331.02831337963346Q889.8829716675157 331.02831337963346 896.7160619135337 333.0509080924548L896.7160619135337 333.0509080924548L909.4802744930955 287.40586524905405Q912.1861782305187 276.33625905050474 914.7827525240056 274.53232322555596L914.7827525240056 274.53232322555596Q918.335959451935 271.9357489320691 922.0258281847847 271.6897576832124Q925.7156969176344 271.4437664343558 929.9522128701657 271.4437664343558L929.9522128701657 271.4437664343558L933.3140932712066 271.4437664343558Q932.9314402174296 274.7236497524445 929.9522128701657 284.8092909555672L929.9522128701657 284.8092909555672Q923.9937581756379 302.57532559521417 913.47079919677 340.86796333389947Q902.9478402179022 379.1606010725848 902.9478402179022 386.5676708992684L902.9478402179022 386.5676708992684Q902.9478402179022 390.12087782719783 903.631149242504 391.37816643246515Q904.2871259061218 392.6081226767484 906.1730588140227 392.6081226767484Q908.0589917219237 392.6081226767484 913.9627816944834 387.0323210359976Q919.8665716670431 381.48385175623093 931.2914985583853 369.45761292323914L931.2914985583853 369.45761292323914L931.2914985583853 380.2265631509636Q929.9522128701657 381.56584883918316 926.3443412202681 385.2283852110489Q922.7364695703706 388.8635892219305 921.014530828374 390.6128603249111L921.014530828374 390.6128603249111L915.9307116853366 395.58735002401227Q912.650828367248 398.9492304250532 910.6828983763947 400.69850152803383Q908.7149683855415 402.4204402700303 905.8450704822138 405.01701456351725Q902.9478402179022 407.61358885700406 901.0345749490172 409.00753926719176Q899.1213096801321 410.40148967737946 896.9073884404223 411.8501048095353L896.9073884404223 411.8501048095353Q892.7802019318274 414.5286761859744 889.9923011114519 414.5286761859744L889.9923011114519 414.5286761859744Q882.093248787055 414.5286761859744 882.093248787055 401.73713124542854L882.093248787055 401.73713124542854Q882.093248787055 395.58735002401227 883.7331904460995 388.8635892219305L883.7331904460995 388.8635892219305ZM886.4390941835226 378.69595093585554L894.8847937276009 341.49660763653316Q894.5021406738239 340.1573219483136 891.4682486045918 338.95469806501444Q888.4343565353598 337.7520741817152 885.837782241873 337.7520741817152L885.837782241873 337.7520741817152Q877.5834092246831 337.7520741817152 869.7936863442225 345.35047053528734Q862.031295824746 352.9215345278754 857.49412390139 363.745149477568Q852.984284339018 374.54143206627657 852.984284339018 384.35374965955856L852.984284339018 384.35374965955856Q852.984284339018 396.5713150194389 860.8560043024308 396.5713150194389L860.8560043024308 396.5713150194389Q867.0057855238471 396.5713150194389 876.2441235364636 389.60156296850045Q885.455129188096 382.631810917562 886.4390941835226 378.69595093585554L886.4390941835226 378.69595093585554ZM984.6442671992944 275.5709529429507L984.6442671992944 275.5709529429507Q977.8931740362285 275.5709529429507 971.5247339269397 294.32095257802433Q965.1289614566668 313.04361985211386 956.874588439477 352.34755494720986L956.874588439477 352.34755494720986Q964.0629993782878 344.96781748151034 970.4041071265927 334.5268555855947Q976.7452148748974 324.1132260506631 980.5990777736516 314.3009084573812L980.5990777736516 314.3009084573812Q988.7714537078892 293.63764355342255 988.7714537078892 284.61796442867865Q988.7714537078892 275.5709529429507 984.6442671992944 275.5709529429507ZM936.7853031161837 414.5286761859744L936.7853031161837 414.5286761859744Q933.4234227151429 414.5286761859744 932.1661341098755 412.8067374439778Q930.9088455046082 411.05746634099717 930.2528688409905 409.85484245769806Q929.5695598163886 408.65221857439883 929.1869067626117 406.6569562225616Q928.8042537088346 404.6343615097402 928.558262459978 403.18574637758434Q928.3122712111214 401.73713124542854 928.2302741281691 399.30455111784613Q928.1209446842329 396.8446386292796 928.1209446842329 395.58735002401227L928.1209446842329 395.58735002401227L928.1209446842329 391.8428165691944Q928.1209446842329 373.3114758219933 933.2594285492385 350.8169427321018Q938.4252447752281 328.3224096422103 946.4336265435612 309.299086397296Q954.4693406728785 290.2757631523816 965.2109585396189 277.4022211288836Q975.9799087673435 264.5286791053855 986.1748794144024 264.5286791053855L986.1748794144024 264.5286791053855Q992.4066577187708 264.5286791053855 996.0145293686684 268.81985977988484Q999.6224010185662 273.08370809340016 999.6224010185662 281.5020752764944Q999.6224010185662 289.8931100986046 997.0804914470474 300.33407199452023Q994.5385818755285 310.7477015294518 990.4933924498858 319.43939232238677Q986.4482030242431 328.13108311532176 981.5557104080942 336.3581237715276Q976.6632177919454 344.58516442773333 971.7433928148122 350.8169427321018L971.7433928148122 350.8169427321018Q961.7670810556258 363.4991582287114 956.1912794148751 368.69230681568513L956.1912794148751 368.69230681568513L953.6767022043405 371.17955166523564Q948.0189034806375 386.1850178454914 948.0189034806375 393.34609642331833Q948.0189034806375 400.5071750011453 951.3807838816784 400.5071750011453L951.3807838816784 400.5071750011453Q953.7860316482767 400.5071750011453 964.5549818760012 389.9295513003093Q975.3239321037257 379.3519275994733 984.2342817845332 369.45761292323914L984.2342817845332 369.45761292323914L984.2342817845332 380.2265631509636Q967.7255357501537 397.9925977906106 956.901920800461 405.9189824759916Q946.1056382117524 413.84536716137256 936.7853031161837 414.5286761859744ZM1001.7269928143395 357.45870645123136L1001.7269928143395 357.45870645123136Q1009.0247331970869 366.8610386297523 1017.8804181559263 366.8610386297523L1017.8804181559263 366.8610386297523Q1023.4562197966771 366.8610386297523 1027.5287415833038 361.3945664329378Q1031.6285957309146 355.90076187513927 1031.6285957309146 349.8603100976593Q1031.6285957309146 343.79252595919525 1029.3600097692365 341.7425988853898Q1027.0914238075588 339.6653394506003 1022.8275754940433 339.6653394506003Q1018.5637271805282 339.6653394506003 1014.8465260866943 341.60593708046946Q1011.1566573538445 343.5192023493545 1008.5600830603577 346.3891002526821L1008.5600830603577 346.3891002526821Q1003.5582610002724 352.07423133736916 1001.7269928143395 357.45870645123136ZM1054.4784495135991 369.6489394501276L1054.4784495135991 369.6489394501276L1054.4784495135991 380.2265631509636Q1039.1996597235027 397.0359651561681 1027.200753251495 405.78232067107126Q1015.1745144185032 414.5286761859744 1004.3235671078265 414.5286761859744L1004.3235671078265 414.5286761859744Q982.6216724864731 414.5286761859744 977.2371973726109 400.397845557209L977.2371973726109 400.397845557209Q975.2146026597894 394.82204391645826 975.2146026597894 386.9503239530454L975.2146026597894 386.9503239530454Q975.2146026597894 372.9288227682163 981.0637279103809 360.1919425496386Q986.9401855219564 347.4550623310609 997.9277946375536 339.22802167485514Q1008.9427361141346 331.02831337963346 1022.3902577182981 331.02831337963346L1022.3902577182981 331.02831337963346Q1045.0761173350784 331.02831337963346 1045.0761173350784 347.9470448287742L1045.0761173350784 347.9470448287742Q1045.0761173350784 358.87998922240314 1036.220432376239 366.9977004346726Q1027.3920797783835 375.1427440079262 1016.3498059408182 375.1427440079262L1016.3498059408182 375.1427440079262Q1011.9219634613986 375.1427440079262 1007.1114679282018 372.5461697144393Q1002.3009723950051 369.94959542095245 998.9390919939643 364.75644683397866L998.9390919939643 364.75644683397866Q994.8119054853693 373.39347290494555 994.8119054853693 381.67517828311946L994.8119054853693 381.67517828311946Q994.8119054853693 403.8690554021862 1010.9653308269559 403.8690554021862L1010.9653308269559 403.8690554021862Q1015.1745144185032 403.8690554021862 1021.3789603618876 399.8238659765435Q1027.583406305272 395.77867655090074 1032.3392371165005 391.323501710497Q1037.0950679277291 386.8409945091091 1044.3928083104765 379.51592176537775Q1051.6905486932237 372.16351666066225 1054.4784495135991 369.6489394501276Z " fill="#ffffff" transform="matrix(0.8297940918093422,0,0,0.8297940918093422,0,18.26110821770871)"/></g></svg>